# xmcd
#
# Track frame offsets: 
#        150
#        15938
#        33126
#        52576
#        66793
#        78752
#        95200
#        110907
#        128860
#        149568
#        161226
#        177455
#        188974
#
# Disc length: 2855 seconds
#
# Revision: 1
# Processed by: cddbd v1.5.2PL0 Copyright (c) Steve Scherf et al.
# Submitted via: ExactAudioCopy v1.0b3
#
DISCID=af0b250d
DTITLE=Kevin Devine - Split the Country, Split the Street
DYEAR=2005
DGENRE=Rock
TTITLE0=Cotton Crush
TTITLE1=Afterparty
TTITLE2=No Time Flat
TTITLE3=Keep Ringing Your Bell
TTITLE4=No One Else's Problem
TTITLE5=Buried By The Buzz
TTITLE6=Haircut
TTITLE7=Probably
TTITLE8=Alabama Acres
TTITLE9=Yr Damned Ol' Dad
TTITLE10=The Shift Change Splits The Streets
TTITLE11=You Are The Daybreak
TTITLE12=Lord, I Know We Don't Talk
EXTD=
EXTT0=
EXTT1=
EXTT2=
EXTT3=
EXTT4=
EXTT5=
EXTT6=
EXTT7=
EXTT8=
EXTT9=
EXTT10=
EXTT11=
EXTT12=
PLAYORDER=
